<?xml version="1.0" encoding="UTF-8"?>
<svg width="700pt" height="700pt" version="1.1" viewBox="0 0 700 700" xmlns="http://www.w3.org/2000/svg">
 <g fill-rule="evenodd">
  <path d="m350 336c61.855 0 112-50.145 112-112s-50.145-112-112-112-112 50.145-112 112 50.145 112 112 112zm0-42c38.66 0 70-31.34 70-70s-31.34-70-70-70-70 31.34-70 70 31.34 70 70 70z"/>
  <path d="m350 560c154.64 0 280-125.36 280-280 0-154.64-125.36-280-280-280-154.64 0-280 125.36-280 280 0 154.64 125.36 280 280 280zm155.04-99.418c50.793-43.648 82.965-108.36 82.965-180.58 0-131.45-106.56-238-238-238-131.45 0-238 106.55-238 238 0 72.223 32.172 136.93 82.965 180.58 7.3906-26.391 21.469-50.703 41.191-70.426 30.191-30.195 71.145-47.156 113.84-47.156s83.648 16.961 113.84 47.156c19.723 19.723 33.801 44.035 41.191 70.426zm-37.273 26.289c-3.6719-25.227-15.375-48.777-33.617-67.016-22.316-22.316-52.582-34.855-84.145-34.855s-61.828 12.539-84.145 34.855c-18.242 18.238-29.949 41.789-33.617 67.016 34.727 19.812 74.922 31.129 117.76 31.129s83.035-11.316 117.76-31.129z"/>
 </g>
</svg>
